<?xml version="1.0" encoding="utf-8"?>
<!-- Generator: Adobe Illustrator 27.7.0, SVG Export Plug-In . SVG Version: 6.00 Build 0)  -->
<svg version="1.1" id="Layer_1" xmlns="http://www.w3.org/2000/svg" xmlns:xlink="http://www.w3.org/1999/xlink" x="0px" y="0px"
	 viewBox="0 0 792 612" style="enable-background:new 0 0 792 612;" xml:space="preserve">
<style type="text/css">
	.st0{fill:#D7DF23;}
	.st1{fill:none;}
	.st2{fill:#2BB673;}
	.st3{fill:#808285;}
	.st4{fill:#F15A29;}
	.st5{fill:#ED1C24;}
</style>
<g>
	<path class="st0" d="M517.25,360.89l-43.83-108.3l-102.2,1.58L267.6,256.1l-18.61,45.99l-14.16,35.02
		c5.29,5.13,8.55,12.29,8.55,20.22c0,15.58-12.58,28.15-28.15,28.19l-18.93,46.76l104.43-3.87l16.77-0.61l122.1-4.55l101.36-3.74
		L517.25,360.89z M340.16,368.14l-15.29,0.61l46.34-114.55l6.32,15.64l38.48,95.17L340.16,368.14z"/>
	<polygon class="st1" points="416.02,365.02 340.16,368.14 377.54,269.84 	"/>
	<polygon class="st2" points="377.54,269.84 340.16,368.14 324.87,368.76 371.22,254.2 	"/>
	<path class="st3" d="M300.71,428.43L226.43,612h-84.16c-8.93,0-15.03-9.04-11.68-17.32l65.69-162.38L300.71,428.43z"/>
	<path class="st4" d="M473.42,252.59l-102.2,1.58L267.6,256.1l47.02-116.14c1.35,2.9,3.23,5.61,5.61,8.03c11,11,28.86,11,39.86,0
		c11-11.03,11-28.86,0-39.86c-8.09-8.13-19.96-10.26-30.03-6.42L371.22,0l51.44,127.07v0.03L473.42,252.59z"/>
	<path class="st3" d="M618.83,612H523.2c-4.36,0-8.29-2.65-9.93-6.69l-73.69-182.04l101.36-3.74L618.83,612z"/>
	<path class="st5" d="M653.93,579.55l-35.09,32.44l-77.89-192.47l-23.7-58.63l-43.83-108.3L422.66,127.1v-0.03L371.22,0h44.8
		c0.32,0.19,0.68,0.39,1,0.61c-8.29,11.03-7.42,26.8,2.61,36.83c6.22,6.22,14.64,8.9,22.74,8.13l184.8,454.64
		c-5.13,5.1-8.32,12.16-8.32,20c0,15.48,12.45,28.03,27.9,28.19l5.71,14.06C654.64,567.87,655.16,573.84,653.93,579.55z"/>
	<line class="st1" x1="319.38" y1="422.82" x2="317.48" y2="427.82"/>
	<polygon class="st2" points="317.48,427.82 249.56,606.39 226.43,612 300.71,428.43 	"/>
</g>
</svg>
